# xmcd
#
# Track frame offsets: 
#        300
#        17401
#        32988
#        57086
#        71588
#        85020
#        106577
#        124806
#        150645
#
# Disc length: 2254 seconds
#
# Revision: 2
# Processed by: cddbd v1.5.2PL0 Copyright (c) Steve Scherf et al.
# Submitted via: ExactAudioCopy v1.0b1
#
DISCID=6608ca09
DTITLE=Bobby Bland - Blues You Can Use
DYEAR=1987
DGENRE=
TTITLE0=Get Your Money Where You Spend Your Time
TTITLE1=Spending My Life With You
TTITLE2=Our First Blues Song
TTITLE3=Restless Feelin's
TTITLE4=24 Hours A Day
TTITLE5=I've Got A Problem
TTITLE6=Let's Part As Friends
TTITLE7=For The Last Time
TTITLE8=There's No Easy Way To Say Goodbye
EXTD=
EXTT0=
EXTT1=
EXTT2=
EXTT3=
EXTT4=
EXTT5=
EXTT6=
EXTT7=
EXTT8=
PLAYORDER=
